<?xml version="1.0" encoding="UTF-8"?><svg xmlns="http://www.w3.org/2000/svg" xmlns:xlink="http://www.w3.org/1999/xlink" height="251.0" preserveAspectRatio="xMidYMid meet" version="1.0" viewBox="0.0 0.0 500.0 251.0" width="500.0" zoomAndPan="magnify"><g id="change1_1"><path d="M496.8,157.29c-30.87,9.5-50.67,2.04-70.63-26.6c-14.02-20.12-35.62-24.32-48.36-24.9 c0.04-0.8,0.06-1.57,0.06-2.33c0-25.16-20.47-45.63-45.63-45.63c-3.93,0-7.82,0.5-11.59,1.49C312.96,24.83,282.11,0,246.58,0 c-35.63,0-66.49,24.92-74.09,59.51c-4-1.12-8.13-1.69-12.29-1.69c-25.16,0-45.63,20.47-45.63,45.63c0,8.94,2.57,17.55,7.45,24.98 c-9.69,12.28-32.52,22.86-66.4,13.47c-39.16-10.85-53.11,11.71-53.68,12.68L0,157.85l3.72-0.69c21.41-4,31.33,5.89,45.08,19.56 c6.46,6.43,13.79,13.72,23.39,20.47c27.81,19.55,74.07-2.16,82.66-6.49c22.68,30.49,50.39,39.24,74.74,39.24 c25.67,0,47.6-9.72,55.97-13.98l0.01,0.02c0.36-0.18,0.7-0.38,1.06-0.57c0.77-0.4,1.38-0.74,1.81-0.98 c33.14,13.1,49.17,2.22,67.7-10.37c5.37-3.65,10.92-7.42,17.21-10.82c15.45-8.36,29.44-5.45,44.25-2.37 c11.84,2.46,24.09,5,38.4,2.55c32.97-5.65,42.82-33.66,42.92-33.95l1.08-3.18L496.8,157.29z M455.42,190.05 c-13.67,2.34-25.59-0.13-37.12-2.53c-15.45-3.21-30.03-6.24-46.57,2.71c-6.43,3.48-12.06,7.3-17.5,10.99 c-18.03,12.25-32.4,22-62.38,10.84c10.44-7.94,17.36-21.23,17.46-34.56c0.09-12.97-6.37-23.72-17.73-29.5 c-4.56-2.32-9.82-3.72-15.2-4.04c-13.38-0.76-28.6,8.43-29.98,23.44c-0.07,0.75-0.1,1.5-0.1,2.25c0,9.83,6.01,18.68,15.31,22.54 c6.58,2.74,14.51,2.53,20.69-0.54c5.17-2.57,8.79-6.97,10.2-12.39l-3.32-0.87c-1.49,5.71-5.4,8.69-8.41,10.19 c-5.31,2.64-12.15,2.81-17.85,0.45c-8.02-3.33-13.2-10.94-13.2-19.38c0-0.65,0.03-1.29,0.09-1.94 c1.18-12.84,14.88-21.08,26.36-20.33c4.92,0.29,9.71,1.56,13.85,3.67c10.3,5.24,15.94,14.62,15.85,26.41 c-0.1,14.25-8.65,28.43-20.89,34.93c-13.69,7.19-82.14,38.57-128.23-24.91l-0.88-1.21l-1.32,0.7c-0.52,0.28-52.02,27.34-80.4,7.39 c-9.36-6.58-16.58-13.76-22.95-20.1c-13.04-12.97-23.51-23.39-43.77-21.15c5.31-5.57,19.35-15.65,47.26-7.91 c36.44,10.09,60.92-2.15,70.81-15.71l0.72-0.99l-0.7-1c-4.93-7.09-7.54-15.41-7.54-24.06c0-23.27,18.93-42.2,42.2-42.2 c3.94,0,7.84,0.55,11.62,1.63c-2.65,13.36,1,27.15,10.4,39.03c10.89,13.75,27.68,22.29,43.82,22.29c2.19,0,4.38-0.13,6.53-0.37 c1.53-0.18,3.07-0.43,4.59-0.75c18.52-3.86,39.26-20.39,41.91-41.38c1.31-10.36-2.87-21.71-10.9-29.62 c-7.19-7.08-16.15-10.26-25.22-8.97c-2.19,0.31-4.33,0.91-6.55,1.85c-6.84,2.89-12.36,8.53-15.14,15.48 c-2.66,6.63-2.56,13.85,0.26,20.33c2.23,5.12,6.58,9.12,12.25,11.26c6.5,2.45,14.03,2.21,20.13-0.66c1.51-0.7,2.81-1.54,4-2.55 c0.74-0.63,1.41-1.33,1.99-2.06l-2.69-2.13c-0.45,0.56-0.96,1.09-1.53,1.58c-0.95,0.81-2.01,1.49-3.23,2.06 c-5.28,2.48-11.81,2.68-17.47,0.55c-4.8-1.81-8.46-5.15-10.32-9.42c-2.45-5.63-2.53-11.91-0.22-17.69 c2.45-6.11,7.29-11.07,13.29-13.6c1.94-0.82,3.81-1.35,5.7-1.62c7.99-1.14,15.92,1.71,22.33,8.02c7.29,7.18,11.08,17.43,9.9,26.75 c-2.46,19.47-21.87,34.84-39.21,38.45c-1.42,0.29-2.86,0.53-4.29,0.7c-2.01,0.24-4.06,0.36-6.11,0.36 c-15.12,0-30.88-8.04-41.13-20.99c-9.1-11.5-12.45-24.88-9.43-37.68l-0.02-0.01l0.01-0.07c6.58-33.95,36.48-58.59,71.11-58.59 c34.52,0,64.41,24.55,71.07,58.37l0.37,1.86l1.82-0.56c4.01-1.23,8.18-1.85,12.39-1.85c23.27,0,42.2,18.93,42.2,42.2 c0,1.21-0.06,2.47-0.18,3.83l-0.17,1.83l1.84,0.04c11.77,0.25,33.59,3.63,47.43,23.49c19.95,28.63,40.7,37.19,70.92,28.95 C490.7,168.79,479.82,185.86,455.42,190.05z" fill="#C5A43F"/></g></svg>